<?xml version="1.0"?>
<svg xmlns="http://www.w3.org/2000/svg" id="Layer_3" enable-background="new 0 0 64 64" height="512px" viewBox="0 0 64 64" width="512px" class=""><g><g><path d="m18 31c-6.065 0-11 4.935-11 11s4.935 11 11 11 11-4.935 11-11-4.935-11-11-11zm0 20c-4.963 0-9-4.037-9-9s4.037-9 9-9 9 4.037 9 9-4.037 9-9 9z" data-original="#000000" class="active-path" data-old_color="#000000" fill="#FFFFFF"/><path d="m19 36.051v-2.051h-2v2.051c-1.692.245-3 1.691-3 3.449 0 1.93 1.57 3.5 3.5 3.5h1c.827 0 1.5.673 1.5 1.5s-.673 1.5-1.5 1.5h-1c-.827 0-1.5-.673-1.5-1.5h-2c0 1.758 1.308 3.204 3 3.449v2.051h2v-2.051c1.692-.245 3-1.691 3-3.449 0-1.93-1.57-3.5-3.5-3.5h-1c-.827 0-1.5-.673-1.5-1.5s.673-1.5 1.5-1.5h1c.827 0 1.5.673 1.5 1.5v.5h2v-.5c0-1.758-1.308-3.204-3-3.449z" data-original="#000000" class="active-path" data-old_color="#000000" fill="#FFFFFF"/><path d="m63 23.003c.001-.267-.104-.521-.293-.71l-18-18c-.391-.391-1.023-.391-1.414 0l-4.293 4.293v-6.586c0-.553-.447-1-1-1h-26c-.553 0-1 .447-1 1v19h-9c-.553 0-1 .447-1 1v40c0 .553.447 1 1 1h42c.081 0 .162-.01.242-.03l4-1c.446-.112.758-.511.758-.97v-13h1c.553 0 1-.447 1-1v-10c0-.468-.327-.842-.76-.952l12.463-12.337c.19-.188.296-.442.297-.708zm-50-20.003h24v18h-2.051c-.504-5.046-4.773-9-9.949-9s-9.446 3.954-9.949 9h-2.051zm19.931 18h-15.862c.495-3.94 3.859-7 7.931-7s7.436 3.06 7.931 7zm-29.931 2h40v13h-4c-3.309 0-6 2.691-6 6s2.691 6 6 6h4v13h-40zm44 13h-2v-12.719l2 .5zm0 24.219-2 .5v-12.719h2zm2-14.219h-10c-2.206 0-4-1.794-4-4s1.794-4 4-4h10zm0-11.538v-11.462c0-.459-.312-.858-.758-.97l-4-1c-.08-.021-.161-.005-.242-.005v-.025h-5v-9.586l5-5 16.582 16.582z" data-original="#000000" class="active-path" data-old_color="#000000" fill="#FFFFFF"/><path d="m17 6h5v-2h-6c-.553 0-1 .447-1 1v6h2z" data-original="#000000" class="active-path" data-old_color="#000000" fill="#FFFFFF"/><path d="m36 42c0 1.654 1.346 3 3 3s3-1.346 3-3-1.346-3-3-3-3 1.346-3 3zm4 0c0 .552-.448 1-1 1s-1-.448-1-1 .448-1 1-1 1 .448 1 1z" data-original="#000000" class="active-path" data-old_color="#000000" fill="#FFFFFF"/></g></g> </svg>
